# xmcd CD database file
#
# Track frame offsets:
#	150
#	20384
#	38646
#	56558
#	76261
#	95675
#	117836
#	142644
#	163556
#	185514
#	210534
#	229991
#	247766
#	265866
#	284934
#
# Disc length: 4104 seconds
#
# Revision: 5
# Processed by: cddbd v1.5.2PL0 Copyright (c) Steve Scherf et al.
# Submitted via: CDex 1.70beta3
#
DISCID=c710060f
DTITLE=VOCALOID - MOER feat. 初音ミク 「-2nd anniversary-」
DYEAR=2010
DGENRE=Vocaloid
TTITLE0=Dear -2nd anniversary-　19's Sound Factory feat.初音ミク
TTITLE1=Snow Piece　19's Sound Factory feat.初音ミク
TTITLE2=Story　19's Sound Factory feat.初音ミク
TTITLE3=ミラクルペイント　OSTER project feat.初音ミク
TTITLE4=PIANO*GIRL　OSTER project feat.初音ミク
TTITLE5=HAPPY FLOWER SHOOOOOP!! 　OSTER project feat.初音ミク
TTITLE6=歌に形はないけれど　doriko feat.初音ミク
TTITLE7=ロミオとシンデレラ　doriko feat.初音ミク
TTITLE8=飴か夢　doriko feat.初音ミク
TTITLE9=from Y to Y　ジミーサムP feat.初音ミク
TTITLE10=No Logic　ジミーサムP feat.巡音ルカ
TTITLE11=Calc.　ジミーサムP feat.初音ミク
TTITLE12=magnet　THE 39's feat.初音ミク, 巡音ルカ
TTITLE13=RIP=RELEASE -affection-　minato feat.巡音ルカ
TTITLE14=夏色☆キャンバス　minato, mikuru396 feat.初音ミク
EXTD=
EXTT0=
EXTT1=
EXTT2=
EXTT3=
EXTT4=
EXTT5=
EXTT6=
EXTT7=
EXTT8=
EXTT9=
EXTT10=
EXTT11=
EXTT12=
EXTT13=
EXTT14=
PLAYORDER=
